<svg xmlns="http://www.w3.org/2000/svg" width="400" height="224.205" viewBox="0 0 74.478996 41.746443"><title>Brasil Foods</title><path fill="#f99d1c" d="m74.477,19.516c-10.779,0-19.518,8.738-19.518,19.518-10.779,0-19.518-8.738-19.518-19.518,0-10.779,8.738-19.518,19.518-19.518s19.52,8.74,19.52,19.52"/><path fill="#FFF" d="m59.457,11.656c1.705,0,2.565-0.217,3.548-3.853h-15.342l-3.529,23.422h5.583l1.327-9.684h5.238c1.704,0,2.564-0.189,3.548-3.439h-8.313l0.883-6.445"/><g fill="#c9252c" transform="translate(-614.403,-505.3135)"><path d="m643.75,524.17c1.206,0,2.642-0.151,3.755-0.567,1.607-0.605,2.781-2.004,2.732-4.157-0.052-2.343-2.031-3.439-3.985-3.439-0.665,0-0.833-0.038-1.371,0.037l-1.12,8.13zm12.79,12.37s-2.141,0.219-3.471,0.219c-1.668,0-2.302-0.466-3.723-2.528-0.768-1.118-1.792-3.031-2.963-5.184-0.606-1.058-0.998-1.853-2.203-1.853h-0.843l-1.28,9.346h-5.598l3.516-23.218s4.118-0.603,6.537-0.603c6.277,0,9.204,2.571,9.292,6.463,0.073,3.175-1.655,5.285-5.467,6.742"/><path d="m619.48,513.33s4.161-0.606,6.257-0.606c6.361,0,8.934,2.683,8.975,5.63,0.007,3.478-2.591,4.914-4.62,5.519,3.674,1.171,4.822,2.985,4.856,5.366,0.034,5.414-5.39,7.534-11.666,7.534-3.897,0-7.267-0.513-7.267-0.513l3.46-22.93zm9.69,16.17c-0.033-2.38-2.212-3.59-4.831-3.59-0.374,0-1.333,0.07-1.333,0.07l-1.033,7.529s1.52,0.19,2.225,0.19c2.827,0,4.968-1.515,4.973-4.16v-0.04zm0.31-10.5c-0.026-1.852-1.58-3.023-3.617-3.023-0.375,0-1.496,0.076-1.496,0.076l-0.943,6.878,2.492-0.151c1.991-0.265,3.593-1.663,3.564-3.742"/><path d="m628.38,542.37c0.451,0,0.859,0.129,1.137,0.393-0.022,0.215-0.187,0.56-0.416,0.467-0.129-0.065-0.45-0.201-0.68-0.201-0.451,0-0.608,0.258-0.61,0.545-0.001,0.279,0.236,0.457,0.686,0.78,0.5,0.365,0.942,0.766,0.941,1.338-0.003,0.902-0.727,1.367-1.578,1.367-0.501,0-0.881-0.129-1.115-0.315-0.079-0.064-0.178-0.193-0.178-0.337-0.013-0.185,0.08-0.38,0.195-0.472,0.157,0.157,0.672,0.444,1.109,0.444,0.428,0,0.636-0.143,0.637-0.48,0.001-0.25-0.22-0.502-0.656-0.816-0.672-0.493-0.921-0.816-0.92-1.36,0.002-0.787,0.576-1.353,1.442-1.353"/><path d="m630.78,542.48h0.969l-0.685,4.473h-0.969"/><path d="m633.29,546.31,0.587-3.828h-0.97l-0.685,4.472h1.838c0.322,0,0.476,0,0.59-0.035,0.13-0.04,0.272-0.266,0.329-0.609"/><path d="m619.73,544.61c0.207,0,0.437-0.029,0.63-0.107,0.279-0.115,0.485-0.38,0.484-0.788-0.002-0.445-0.34-0.652-0.677-0.652-0.114,0-0.143-0.008-0.236,0.007l-0.19,1.54zm-0.64-2.05s0.804-0.119,1.128-0.119c1.082,0,1.578,0.486,1.583,1.225,0.002,0.603-0.31,1.011-0.991,1.289,0.152,0.158,0.76,1.513,1.12,1.985,0,0-0.337,0.071-0.566,0.071-0.308,0-0.473-0.071-0.69-0.437-0.123-0.216-0.332-0.631-0.527-1.039-0.102-0.202-0.167-0.351-0.375-0.351h-0.119l-0.231,1.77h-1.008"/><path d="m642.86,542.37c1.089,0,1.619,0.852,1.608,2.025-0.011,1.239-0.651,2.664-2.134,2.664-1.114,0-1.663-0.787-1.653-1.983,0.013-1.353,0.764-2.706,2.172-2.706h-0.002zm-0.12,0.65c-0.589,0-1.114,0.787-1.127,2.105-0.006,0.715,0.229,1.281,0.777,1.281,0.76,0,1.131-1.073,1.14-2.054,0.006-0.609-0.145-1.332-0.783-1.332"/><path d="m647.15,542.37c1.089,0,1.619,0.852,1.608,2.025-0.012,1.239-0.651,2.664-2.133,2.664-1.114,0-1.664-0.787-1.653-1.983,0.013-1.353,0.764-2.706,2.172-2.706h-0.004zm-0.12,0.65c-0.59,0-1.115,0.787-1.127,2.105-0.006,0.715,0.229,1.281,0.777,1.281,0.761,0,1.131-1.073,1.14-2.054,0.005-0.609-0.145-1.332-0.783-1.332"/><path d="m649.76,542.59s0.822-0.13,1.117-0.13c1.389,0,2.186,0.622,2.152,2.096-0.036,1.568-1.168,2.469-2.518,2.469-0.495,0-1.398-0.185-1.398-0.185l0.65-4.25zm2.32,2c0.021-0.931-0.322-1.474-1.284-1.474-0.105,0-0.244,0.021-0.244,0.021l-0.467,3.199s0.269,0.036,0.447,0.036c0.882,0,1.523-0.687,1.548-1.775"/><path d="m655.09,542.37c0.451,0,0.858,0.129,1.137,0.393-0.023,0.215-0.187,0.56-0.416,0.467-0.128-0.065-0.45-0.201-0.679-0.201-0.451,0-0.61,0.258-0.611,0.545,0,0.279,0.236,0.457,0.686,0.78,0.5,0.365,0.943,0.766,0.941,1.338-0.003,0.902-0.727,1.367-1.579,1.367-0.5,0-0.879-0.129-1.115-0.315-0.078-0.064-0.178-0.193-0.178-0.337-0.014-0.185,0.08-0.38,0.195-0.472,0.157,0.157,0.672,0.444,1.108,0.444,0.429,0,0.638-0.143,0.639-0.48,0-0.25-0.221-0.502-0.657-0.816-0.672-0.493-0.922-0.816-0.921-1.36,0.003-0.787,0.576-1.353,1.443-1.353"/><path d="m615.06,542.55s0.719-0.116,1.08-0.116c1.096,0,1.532,0.509,1.531,1.069-0.009,0.658-0.461,0.931-0.813,1.046,0.63,0.221,0.822,0.566,0.821,1.017-0.008,1.024-0.941,1.453-2.023,1.453-0.372,0-1.253-0.164-1.253-0.164l0.65-4.31zm1.62,3.07c0.001-0.451-0.37-0.681-0.823-0.681-0.064,0-0.229,0.014-0.229,0.014l-0.199,1.426s0.26,0.035,0.383,0.035c0.486,0,0.86-0.286,0.868-0.787v-0.01zm0.09-1.99c0-0.351-0.264-0.573-0.615-0.573-0.065,0-0.258,0.015-0.258,0.015l-0.182,1.304,0.43-0.029c0.344-0.05,0.625-0.315,0.626-0.71"/><path d="m623.61,545.8-0.466,1.152h-0.927l2.02-4.473h0.783l1.141,4.473h-0.909l-0.269-1.152h-1.358zm1.22-0.65-0.351-1.503-0.608,1.503"/><path d="m640.05,544.47c-0.178,0.615-0.343,0.652-0.637,0.652h-0.892l-0.275,1.831h-0.967l0.682-4.473h2.584c-0.053,0.351-0.198,0.575-0.329,0.622-0.078,0.029-0.271,0.029-0.6,0.029h-0.794l-0.202,1.338"/></g></svg>